<?xml version="1.0" standalone="no"?>
<!DOCTYPE svg PUBLIC "-//W3C//DTD SVG 20010904//EN"
 "http://www.w3.org/TR/2001/REC-SVG-20010904/DTD/svg10.dtd">
<svg version="1.0" xmlns="http://www.w3.org/2000/svg"
 width="260.000000pt" height="260.000000pt" viewBox="0 0 260.000000 260.000000"
 preserveAspectRatio="xMidYMid meet">
<metadata>
Created by potrace 1.14, written by Peter Selinger 2001-2017
</metadata>
<g transform="translate(0.000000,260.000000) scale(0.100000,-0.100000)"
fill="#000000" stroke="none">
<path d="M838 2357 c-49 -38 -70 -62 -78 -87 -5 -19 -71 -276 -146 -570 -75
-294 -189 -742 -254 -995 -64 -253 -114 -463 -111 -466 3 -4 321 -27 706 -53
385 -26 725 -49 755 -52 l55 -6 67 74 66 74 211 1021 c116 562 211 1028 211
1037 0 13 -11 16 -52 16 -29 0 -341 14 -693 30 -352 16 -647 30 -655 30 -8 0
-45 -24 -82 -53z m1472 -30 c0 -2 -10 -12 -22 -23 l-23 -19 19 23 c18 21 26
27 26 19z m-720 -68 c338 -12 616 -22 616 -23 2 -1 -445 -2068 -450 -2081 -4
-10 -1479 84 -1490 96 -4 4 492 1981 509 2028 4 11 25 12 103 7 53 -3 374 -15
712 -27z"/>
<path d="M826 2129 c-13 -40 -47 -211 -43 -215 3 -3 280 -17 617 -32 534 -23
612 -24 620 -12 16 26 52 202 44 209 -5 4 -238 18 -519 30 -280 12 -556 25
-612 28 -83 5 -103 3 -107 -8z m703 -34 c288 -13 525 -26 527 -27 4 -4 -42
-188 -49 -194 -2 -3 -263 7 -578 21 -316 14 -588 25 -605 25 l-32 0 20 93 c11
50 21 97 23 104 3 9 27 11 87 7 46 -3 319 -16 607 -29z"/>
<path d="M741 1582 c-13 -24 -38 -127 -46 -188 l-6 -51 38 -6 c21 -4 66 -7
100 -7 l61 0 17 48 c9 26 21 57 26 70 5 13 9 47 9 77 l0 53 -67 7 c-38 3 -80
8 -95 10 -19 3 -30 -1 -37 -13z m186 -16 c4 -3 -40 -141 -47 -150 -5 -4 -45
-5 -90 -1 l-82 7 7 27 c3 14 13 50 22 80 l15 54 86 -7 c48 -4 88 -8 89 -10z"/>
<path d="M1022 1501 c-12 -43 -22 -101 -22 -129 l0 -50 97 1 98 2 22 65 c13
37 23 89 23 121 l0 56 -61 7 c-34 3 -79 6 -99 6 l-37 0 -21 -79z m206 54 c2
-2 -7 -38 -19 -80 l-23 -78 -85 7 c-47 3 -86 7 -87 9 -1 1 7 37 19 80 l21 78
85 -6 c47 -4 87 -9 89 -10z"/>
<path d="M1356 1549 c-23 -68 -46 -173 -46 -207 l0 -42 99 0 c98 0 99 0 109
28 20 51 30 97 35 154 6 67 11 63 -110 73 -65 6 -84 4 -87 -6z m152 -15 c17
-3 32 -10 32 -15 0 -6 -10 -42 -21 -81 -21 -69 -22 -70 -52 -64 -16 3 -48 6
-71 6 -66 0 -70 7 -51 81 9 35 18 69 20 76 4 12 52 11 143 -3z"/>
<path d="M1676 1478 c-31 -111 -36 -134 -36 -171 l0 -38 102 3 101 3 17 50 c9
28 20 80 24 117 8 78 15 73 -116 83 l-77 7 -15 -54z m160 26 l41 -5 -22 -77
c-19 -66 -25 -77 -44 -76 -155 5 -158 6 -143 55 6 19 16 53 22 76 l11 43 47
-6 c26 -3 66 -7 88 -10z"/>
<path d="M676 1252 c-12 -20 -46 -175 -46 -211 l0 -41 99 0 c98 0 99 0 109 28
22 57 31 99 34 157 l3 60 -55 7 c-79 9 -138 9 -144 0z m183 -18 c4 -4 -30
-140 -38 -153 -6 -8 -160 5 -169 14 -4 4 17 94 33 143 4 9 24 11 87 6 46 -4
85 -8 87 -10z"/>
<path d="M980 1239 c0 -2 -9 -36 -20 -74 -11 -39 -23 -96 -26 -128 l-6 -58
103 3 102 3 24 69 c22 68 31 160 15 169 -9 6 -192 21 -192 16z m166 -24 l22
-5 -23 -77 -22 -78 -49 3 c-97 5 -125 13 -120 30 3 10 10 37 16 62 22 89 14
82 88 75 37 -3 77 -8 88 -10z"/>
<path d="M1262 1133 c-27 -104 -29 -158 -6 -167 9 -3 53 -6 98 -6 l83 0 22 68
c11 37 21 93 21 123 l0 56 -52 7 c-29 3 -73 6 -98 6 l-45 0 -23 -87z m179 67
c35 0 35 -3 8 -92 l-22 -71 -80 6 c-44 4 -82 9 -84 11 -3 3 3 39 13 82 l18 76
60 -6 c32 -3 72 -6 87 -6z"/>
<path d="M1552 927 c-40 -139 -72 -270 -72 -290 0 -34 2 -37 29 -37 15 0 55
-3 88 -6 l61 -7 17 59 c94 320 125 436 125 475 0 46 0 46 -37 53 -21 3 -61 6
-89 6 l-50 0 -72 -253z m227 228 c3 -3 -26 -113 -63 -244 l-68 -238 -71 5
c-40 2 -74 6 -76 8 -2 2 26 113 64 245 l68 242 70 -7 c39 -4 73 -9 76 -11z"/>
<path d="M576 879 c-26 -94 -32 -123 -31 -164 l0 -40 97 -3 96 -3 22 58 c23
62 37 177 23 186 -5 4 -50 9 -101 13 l-91 7 -15 -54z m195 22 c4 -3 -4 -40
-17 -81 l-23 -76 -73 7 c-40 4 -79 8 -87 8 -14 1 -13 10 16 109 l15 53 81 -7
c45 -3 85 -9 88 -13z"/>
<path d="M890 859 c-6 -24 -15 -57 -20 -74 -5 -16 -10 -55 -12 -85 l-3 -55 99
0 99 0 24 69 c23 69 31 160 15 170 -5 3 -49 8 -99 12 l-91 7 -12 -44z m191 12
c4 -3 -3 -40 -16 -81 l-22 -75 -39 3 c-106 7 -135 14 -130 30 3 10 10 37 16
62 22 88 12 81 103 74 45 -4 85 -9 88 -13z"/>
<path d="M1217 873 c-14 -24 -47 -169 -47 -208 l0 -45 99 0 99 0 21 62 c24 70
29 176 9 183 -29 9 -176 16 -181 8z m136 -18 c26 -4 47 -9 47 -11 0 -3 -10
-39 -21 -80 l-22 -73 -76 6 c-42 3 -80 9 -85 13 -8 8 6 87 25 138 7 19 14 22
46 17 21 -2 59 -7 86 -10z"/>
<path d="M535 606 c-22 -68 -45 -174 -45 -205 0 -35 3 -39 31 -45 17 -3 60 -6
95 -6 54 0 65 3 74 21 20 37 39 113 41 169 l3 55 -39 6 c-83 14 -157 16 -160
5z m124 -12 c33 -4 61 -11 61 -17 0 -5 -9 -41 -21 -80 l-21 -69 -81 7 c-45 4
-84 8 -86 10 -1 2 5 38 15 79 20 86 13 82 133 70z"/>
<path d="M832 513 c-11 -43 -24 -102 -27 -131 l-7 -53 104 3 103 3 22 65 c13
36 23 88 23 117 l0 51 -37 6 c-21 3 -66 8 -99 11 l-61 7 -21 -79z m141 52 c37
-4 67 -7 67 -8 0 -1 -11 -36 -24 -77 l-23 -75 -84 4 c-46 2 -85 4 -87 6 -2 2
7 39 19 84 20 72 24 80 43 76 12 -2 51 -7 89 -10z"/>
<path d="M1155 550 c-11 -18 -45 -175 -45 -208 0 -47 10 -52 117 -52 63 0 74
3 83 21 23 41 40 116 40 172 0 52 -2 57 -22 58 -13 0 -56 4 -96 8 -40 4 -75 4
-77 1z m118 -17 c77 -7 74 4 40 -112 l-15 -54 -81 6 c-44 4 -82 9 -85 12 -3 3
3 39 13 80 21 84 12 79 128 68z"/>
</g>
</svg>
